<?xml version="1.0" encoding="UTF-8"?>
<svg version="1.1" xmlns="http://www.w3.org/2000/svg" width="32" height="32">
<path d="M0 0 C4.63081828 2.23556745 8.14555835 5.12546766 10 10 C10.9108394 16.13064978 10.98075153 21.48108501 7.25 26.625 C4.3460147 30.10098241 1.77114838 31.73685795 -2.734375 32.40625 C-9.36701575 32.61244609 -13.33207097 32.00105463 -18.4765625 27.703125 C-22.46905224 23.23972622 -22.53832496 18.86248448 -22.453125 13.0546875 C-21.74989708 8.31396132 -19.53604402 5.16297515 -16 2 C-11.14376405 -1.10716792 -5.53967629 -0.82174226 0 0 Z M-16 23 C-13.22848949 26.27542151 -11.56400972 27.84441111 -7.375 29 C-4.04373699 29.37081887 -4.04373699 29.37081887 -2.2890625 27.5 C-1.65097656 26.7575 -1.65097656 26.7575 -1 26 C-2.9363704 25.49564306 -4.87414146 24.99666126 -6.8125 24.5 C-7.89144531 24.2215625 -8.97039063 23.943125 -10.08203125 23.65625 C-12.98933975 22.89029052 -12.98933975 22.89029052 -16 23 Z " fill="#FFFFFF" transform="translate(22,0)"/>
</svg>
